<?xml version="1.0" encoding="UTF-8" standalone="no"?>
<svg xmlns:sketch="http://www.bohemiancoding.com/sketch/ns" xmlns:rdf="http://www.w3.org/1999/02/22-rdf-syntax-ns#" xmlns="http://www.w3.org/2000/svg" height="320.71" width="316.18" version="1.1" y="0px" x="0px" xmlns:cc="http://creativecommons.org/ns#" viewBox="0 0 316.17719 320.70929" xmlns:dc="http://purl.org/dc/elements/1.1/">
 <g fill="#fff" stroke-width="3">
  <path d="m225.83 10h-134.65c-5.8101 0-10.536 4.7254-10.536 10.53v10.949h155.72v-10.949c0.01-5.805-4.72-10.53-10.53-10.53zm-86.121 16.109h-5.3698c-2.9695 0-5.3698-2.4057-5.3698-5.3698s2.4003-5.3698 5.3698-5.3698h5.3698c2.9695 0 5.3698 2.4057 5.3698 5.3698s-2.4003 5.3698-5.3698 5.3698zm42.958 0h-26.849c-2.9695 0-5.3698-2.4057-5.3698-5.3698s2.4003-5.3698 5.3698-5.3698h26.849c2.9695 0 5.3698 2.4057 5.3698 5.3698s-2.4003 5.3698-5.3698 5.3698z" sketch:type="MSShapeGroup"/>
  <path d="m80.645 262.38h155.72v-220.16h-155.72v220.16zm66.015-202.48c2.0996-2.0996 5.4933-2.0996 7.5929 0s2.0996 5.4987 0 7.5929l-16.109 16.109c-1.0471 1.0471-2.4218 1.5734-3.7965 1.5734s-2.7493-0.52624-3.7964-1.5734c-2.0996-2.0942-2.0996-5.4933 0-7.5929l16.109-16.109zm-48.332 21.479 21.482-21.479c2.0996-2.0996 5.4933-2.0996 7.5929 0s2.0996 5.4987 0 7.5929l-21.479 21.479c-1.0471 1.0471-2.4218 1.5734-3.7964 1.5734-1.3747 0-2.7493-0.52624-3.7965-1.5734-2.0996-2.0996-2.0996-5.4933 0-7.5929zm30.645 9.1663c0 1.3962-0.59068 2.7923-1.5572 3.8126-1.0203 0.96657-2.4164 1.5572-3.8126 1.5572s-2.7977-0.59068-3.8126-1.5572c-0.97193-1.0203-1.5572-2.4164-1.5572-3.8126s0.58531-2.7923 1.5572-3.8126c2.0405-1.9868 5.5846-1.9868 7.6251 0 0.96656 1.0203 1.5572 2.4164 1.5572 3.8126zm-30.642 17.683 10.742-10.74c2.0996-2.0996 5.4933-2.0996 7.5929 0s2.0996 5.4933 0 7.5929l-10.74 10.74c-1.0471 1.0471-2.4218 1.5734-3.7964 1.5734-1.3747 0-2.7493-0.52625-3.7965-1.5734-2.0996-2.0942-2.0996-5.4933 0-7.5929zm55.922-13.886-48.33 48.326c-1.0471 1.0471-2.4218 1.5734-3.7964 1.5734-1.3747 0-2.7493-0.52624-3.7965-1.5734-2.0996-2.0996-2.0996-5.4933 0-7.5929l48.333-48.329c2.0996-2.0996 5.4933-2.0996 7.5929 0s2.0996 5.4933 0 7.5929zm10.75-10.724c-1.0203 0.96656-2.4164 1.5572-3.8126 1.5572s-2.7977-0.59068-3.8126-1.5572c-0.97193-1.0203-1.5572-2.4164-1.5572-3.8126s0.58531-2.7923 1.5572-3.8126c2.0405-1.9868 5.6383-1.9868 7.6251 0 0.96657 1.0203 1.5572 2.4164 1.5572 3.8126s-0.59068 2.7923-1.5572 3.8126zm16.093-16.126-5.3698 5.3698c-1.0471 1.0471-2.4218 1.5734-3.7965 1.5734s-2.7493-0.52624-3.7964-1.5734c-2.0996-2.0996-2.0996-5.4933 0-7.5929l5.3698-5.3698c2.0996-2.0996 5.4933-2.0996 7.5929 0s2.0996 5.4987 0 7.5929z" sketch:type="MSShapeGroup"/>
  <path d="m80.645 273.12v27.058c0 5.8048 4.7254 10.53 10.536 10.53h134.65c5.8101 0 10.536-4.7254 10.536-10.53v-27.058h-155.72zm77.862 32.219c-7.4157 0-13.425-6.0088-13.425-13.425 0-7.4157 6.0088-13.425 13.425-13.425 7.4157 0 13.425 6.0088 13.425 13.425 0 7.4157-6.0088 13.425-13.425 13.425z" sketch:type="MSShapeGroup"/>
  <path d="m247.11 300.18c0 3.8233-1.0149 7.4264-2.7977 10.53h53.897c4.3925 0 7.9688-3.6192 7.9688-8.0654v-18.784h-59.068v16.319" sketch:type="MSShapeGroup"/>
  <path d="m298.21 58.328h-51.099v5.3698h16.109c2.9695 0 5.3698 2.4057 5.3698 5.3698s-2.4003 5.3698-5.3698 5.3698h-16.109v5.3698h59.068v-13.414c0-4.4462-3.5763-8.0655-7.9688-8.0655" sketch:type="MSShapeGroup"/>
  <path d="m247.11 90.547h59.068v182.57h-59.068v-182.57z" sketch:type="MSShapeGroup"/>
  <path d="m72.703 310.71c-1.7828-3.1038-2.7977-6.7069-2.7977-10.53v-16.319h-59.906v18.8c0 4.4408 3.6139 8.0493 8.0493 8.0493h54.654" sketch:type="MSShapeGroup"/>
  <path d="m10.838 90.547h59.068v182.57h-59.068v-182.57z" sketch:type="MSShapeGroup"/>
  <path d="m69.906 58.667h-51.856c-4.436 0-8.05 3.608-8.05 8.049v13.092h59.906v-21.141zm-10.906 15.771h-4.5321c-2.9695 0-5.3698-2.4057-5.3698-5.3698s2.4003-5.3698 5.3698-5.3698h4.5321c2.9641 0 5.3698 2.4057 5.3698 5.3698s-2.4057 5.3698-5.3698 5.3698z" sketch:type="MSShapeGroup"/>
 </g>
</svg>
