<svg xmlns:rdf="http://www.w3.org/1999/02/22-rdf-syntax-ns#" xmlns="http://www.w3.org/2000/svg" height="320.96" width="359.78" version="1.1" xmlns:cc="http://creativecommons.org/ns#" xmlns:dc="http://purl.org/dc/elements/1.1/" viewBox="0 0 359.77927 320.95677">
  <g fill="#fff" stroke-width="3">
   <path d="m144.97 84.225c0 7.5168 6.264 13.781 13.781 13.781 7.5168 0 13.781-6.264 13.781-13.781 0-5.6376-3.4452-10.649-8.4564-12.841v-10.962c0-4.0716-1.2528-7.2036-4.0716-8.7696-2.5056-1.566-5.9508-1.2528-9.7092 0.6264-4.3848 2.5056-49.172 25.056-55.75 27.875-5.9508 2.5056-9.0828 3.7584-15.973 3.7584h-11.902c-2.1924-7.83-9.396-13.781-17.852-13.781-10.336 0-18.479 8.4564-18.479 18.479 0 10.022 8.4564 18.479 18.479 18.479 8.7696 0 15.973-5.9508 17.852-14.094h11.902c8.7696 0 13.154-1.8792 19.732-4.698 7.2036-3.132 51.052-25.369 56.376-28.188v9.7092 0.6264c-5.6376 2.1924-9.7092 7.5168-9.7092 13.781zm-96.154 14.094c-5.0112 0-9.0828-4.0716-9.0828-9.0828s4.0716-9.0828 9.0828-9.0828 9.0828 4.0716 9.0828 9.0828-4.0716 9.0828-9.0828 9.0828z"/>
   <path d="m47.584 139.03h27.562c1.8792 5.3244 6.8904 9.0828 12.841 9.0828 7.5168 0 13.781-6.264 13.781-13.781 0-7.5168-6.264-13.781-13.781-13.781-5.9508 0-10.962 3.7584-12.841 9.0828h-27.562c-2.1924-7.83-9.396-13.781-17.852-13.781-10.336 0-18.479 8.4564-18.479 18.479 0 10.022 8.4564 18.479 18.479 18.479 8.7696 0.31321 15.973-5.6376 17.852-13.781zm-26.935-4.698c0-5.0112 4.0716-9.0828 9.0828-9.0828s9.0828 4.0716 9.0828 9.0828-4.0716 9.0828-9.0828 9.0828c-5.0112 0.3132-9.0828-4.0716-9.0828-9.0828z"/>
   <path d="m33.803 269.33v-76.734c0-14.72 5.0112-17.852 13.468-17.852 10.336 0 21.924 0 26.935 0.31321 1.8792 5.3244 6.8904 9.0828 13.154 9.0828 7.5168 0 13.781-6.264 13.781-13.781 0-7.5168-6.264-13.781-13.781-13.781-5.9508 0-10.962 3.7584-12.841 9.0828-5.3244 0-16.913-0.3132-26.935-0.3132-23.177 0.3132-23.177 20.671-23.177 27.248v76.421c-8.1432 1.8792-14.407 9.396-14.407 18.166 0 10.336 8.4564 18.479 18.479 18.479 10.022 0 18.479-8.4564 18.479-18.479 0.31321-8.4564-5.3244-15.66-13.154-17.852zm-5.3244 26.935c-5.0112 0-9.0828-4.0716-9.0828-9.0828s4.0716-9.0828 9.0828-9.0828 9.0828 4.0716 9.0828 9.0828c0.3132 5.0112-4.0716 9.0828-9.0828 9.0828z"/>
   <path d="m267.41 148.12c5.3244 0 10.022-3.132 12.215-7.5168h22.864c21.298 0 21.298-18.792 21.298-25.056v-69.217c7.5168-1.8792 13.154-8.7696 13.154-16.913 0-9.396-7.83-17.226-17.226-17.226s-17.226 7.83-17.226 17.226c0 7.83 5.0112 14.407 12.215 16.6v69.53c0 13.154-4.0716 15.66-11.902 15.66h-21.611c-1.2528-6.264-6.8904-10.962-13.468-10.962-7.5168 0-13.781 6.264-13.781 13.781-0.6264 7.83 5.6376 14.094 13.468 14.094zm44.16-118.39c0-4.3848 3.4452-7.83 7.83-7.83s7.83 3.4452 7.83 7.83-3.4452 7.83-7.83 7.83c-4.0716 0-7.83-3.4452-7.83-7.83z"/>
   <path d="m349.78 170.98c0-10.336-8.4564-18.479-18.479-18.479-8.4564 0-15.973 5.9508-17.852 13.781h-33.826c-1.8792-5.3244-6.8904-9.0828-12.841-9.0828-7.5168 0-13.781 6.264-13.781 13.781 0 7.5168 6.264 13.781 13.781 13.781 5.9508 0 10.962-3.7584 12.841-9.0828h33.826c2.1924 7.83 9.396 13.781 17.852 13.781 10.022 0 18.479-8.1432 18.479-18.479zm-18.479-9.0828c5.0112 0 9.0828 4.0716 9.0828 9.0828s-4.0716 9.0828-9.0828 9.0828-9.0828-4.0716-9.0828-9.0828c-0.3132-5.0112 4.0716-9.0828 9.0828-9.0828z"/>
   <path d="m47.876 61.361c8.7696 0 15.973-5.9508 18.166-14.094h47.606c5.6376 0 23.803-6.5772 57.629-20.045 7.83-3.132 16.286-6.264 19.418-7.5168v1.566 49.799c-5.3244 1.8792-9.0828 6.8904-9.0828 12.841 0 7.5168 6.264 13.781 13.781 13.781 7.5168 0 13.781-6.264 13.781-13.781 0-5.9508-4.0716-11.275-9.396-13.154v-49.486c0-2.8188 0-11.275-9.0828-11.275-1.566 0-3.132 0.6264-23.177 8.4564-17.226 6.8904-49.172 19.418-54.184 19.418h-47.606c-2.1924-7.83-9.396-13.468-17.852-13.468-10.336 0-18.479 8.4564-18.479 18.479 0 10.022 8.1432 18.479 18.479 18.479zm0-27.875c5.0112 0 9.0828 4.0716 9.0828 9.0828s-4.0716 9.0828-9.0828 9.0828-9.0828-4.0716-9.0828-9.0828c0-4.698 4.0716-9.0828 9.0828-9.0828z"/>
   <path d="m158.75 226.08c-5.6376 0-10.649 3.4452-12.528 8.1432h-44.161c-12.841 0-20.358 8.1432-20.358 21.611v6.264c-8.1432 1.8792-14.094 9.396-14.094 17.852 0 10.336 8.4564 18.479 18.479 18.479 10.022 0 18.479-8.4564 18.479-18.479 0-8.4564-5.6376-15.66-13.468-17.852 0-1.8792-0.31321-4.0716-0.31321-6.264 0-8.4564 3.4452-12.215 10.962-12.215h43.535c1.566 5.9508 6.8904 10.022 13.154 10.022 7.5168 0 13.781-6.264 13.781-13.781 0.31321-7.5168-5.9508-13.781-13.468-13.781zm-63.58 53.87c0 5.0112-4.0716 9.0828-9.0828 9.0828s-9.0828-4.0716-9.0828-9.0828 4.0716-9.0828 9.0828-9.0828 9.0828 4.0716 9.0828 9.0828z"/>
   <path d="m247.38 274.63c0-4.3848 0.31321-11.588 0.31321-18.792 0-13.468-7.5168-21.611-20.358-21.611h-19.105c-2.1924-5.0112-6.8904-8.1432-12.528-8.1432-7.5168 0-13.781 6.264-13.781 13.781 0 7.5168 6.264 13.781 13.781 13.781 6.264 0 11.588-4.3848 13.154-10.022h18.479c7.5168 0 10.962 3.7584 10.962 12.215 0 7.2036-0.3132 14.407-0.3132 18.792-7.83 2.1924-13.468 9.396-13.468 17.852 0 10.336 8.4564 18.479 18.479 18.479 10.022 0 18.479-8.4564 18.479-18.479 0-8.7696-5.9508-15.973-14.094-17.852zm-4.3848 27.248c-5.0112 0-9.0828-4.0716-9.0828-9.0828s4.0716-9.0828 9.0828-9.0828 9.0828 4.0716 9.0828 9.0828-4.0716 9.0828-9.0828 9.0828z"/>
   <path d="m238.31 172.56c-0.52171-3.2114-1.9945-6.8047-3.8866-9.4882-1.0509-1.479-2.8981-3.486-4.2935-4.6455-2.8931-2.4213-5.8374-3.989-9.1237-4.8676-0.75137-0.20344-0.91113-0.26834-0.91113-0.3632 0-0.0637 0.0761-0.68147 0.17224-1.3767 0.15976-1.1533 0.17349-1.4278 0.17349-3.295 0-2.1992-0.0899-3.1864-0.44558-5.0024-0.9236-4.6567-3.0142-9.2261-6.0097-13.126-2.1418-2.7908-4.9762-5.3656-7.7358-7.0219-3.1527-1.8922-8.3586-3.9303-10.941-4.2823-1.6113-0.22341-4.6006-0.28582-7.2316-0.15851-1.2618 0.0636-2.9056 0.20968-3.8554 0.34947-3.0142 0.43435-7.3339 2.2616-10.8 4.5681-1.9995 1.3255-3.4785 2.5299-5.1348 4.1862-1.8734 1.8672-3.0267 3.3574-4.3397 5.614l-0.58037 0.9935-0.66899-0.31827c-4.5045-2.1218-10.615-2.7284-15.528-1.5414-3.5609 0.8587-7.5511 3.013-10.507 5.6764-0.34448 0.31328-0.68272 0.60534-0.75262 0.65651-0.21717 0.15976-1.7149 1.796-2.2429 2.46-0.74014 0.92984-1.6575 2.3577-2.1854 3.4024-1.358 2.6884-2.5299 6.6837-2.6822 9.1437l-0.0449 0.70643-1.5988 0.79755c-2.6822 1.338-4.4982 2.6697-6.7161 4.945-1.8996 1.9433-3.1602 3.657-4.2124 5.7276-2.2553 4.4533-3.0067 9.578-2.0893 14.356 0.84747 4.4296 2.9306 8.3986 6.1869 11.77 3.5359 3.6695 6.2381 5.2633 10.876 6.4353 2.4101 0.60409 4.7541 0.78382 11.604 0.8924 1.2431 0.0187 2.983 0.0437 3.8554 0.0637 7.933 0.15976 57.684 0.24837 61.903 0.10858 5.4293-0.17224 7.9393-0.35696 10.246-0.74637 2.148-0.3632 3.677-0.84747 6.0034-1.8921 3.1864-1.4403 4.9575-2.631 7.1367-4.824 2.2741-2.2866 3.8167-4.663 4.9887-7.7159 1.4678-3.8392 1.9895-8.4073 1.3717-12.187zm-35.831-26.984c-0.16724 0.35197-0.43684 0.61532-20.367 20.43-14.056 13.973-14.063 13.979-14.416 14.166-0.24338 0.13355-0.38442 0.15976-0.81377 0.15976-0.45432 0-0.55042-0.02-0.84622-0.19221-0.48178-0.28208-15.942-15.665-16.153-16.07-0.44183-0.87118-0.12232-1.9034 0.74388-2.3914 0.31452-0.18097 0.41063-0.19845 0.86619-0.19845 0.45431 0 0.55042 0.0187 0.84622 0.19097 0.2309 0.13479 2.4875 2.334 7.4325 7.2466 3.9054 3.8791 7.1105 7.0469 7.1242 7.0419 0.0886-0.0375 16.152-15.981 28.426-28.215 2.3477-2.3402 4.3672-4.3222 4.4895-4.3984 0.12231-0.0824 0.31452-0.18472 0.41687-0.22466 0.29456-0.10859 1.1096-0.0649 1.4104 0.0824 0.3657 0.18098 0.77009 0.62281 0.8924 0.97478 0.15227 0.44683 0.1323 1.011-0.0524 1.3966z"/>
 </g>
</svg>
