<svg xmlns:rdf="http://www.w3.org/1999/02/22-rdf-syntax-ns#" xmlns="http://www.w3.org/2000/svg" height="450.16" width="1138.6" version="1.1" xmlns:cc="http://creativecommons.org/ns#" xmlns:dc="http://purl.org/dc/elements/1.1/" viewBox="0 0 1138.5778 450.17036">
 <g stroke-width="5" fill="#fff">
  <path d="m246.01 46.773c-55.44 0-98.09 31.923-98.09 61.561 0 10.996 12.21 21.786 26.65 21.786 17.57 0.19999 35.86-28.13 53.75-28.13 20.9 0 27.38 11.05 27.38 26.31 0 23.98-17.58 63.54-39.66 103.09-27.24-4.63-55.73-8.44-83.75-8.44-61.617 0-122.3 36.47-122.3 88.31-0.00414 39.37 31.331 63.16 71.556 63.16 57.674-0.99 107.21-66.89 139.11-131.44 17.3 2.55 42.26 8.08 60.88 12.81v19.56c0 62.41 27.88 91.73 59.44 101.06 16.85-12.83 32.65-23.73 49.93-34.49l-19.37 1c-14.35-3.66-40-19.22-40-69.65v-7.91c9.91 1.06 22.36 1.72 30.91 1.69 13.61-0.05 25.37-13.81 25.37-24.31-10.76 6.85-33.52 7.39-56.28 5.28v-122.06c-0.15-16.671-0.95-79.187-85.53-79.187zm-15.28 22.063c24.55 0 50.66 13.6 50.66 50.684 0.05 40.13 0.1 80.25 0.15 120.38-15.44-2.42-40.81-5.31-56.09-6.87 20.95-44.78 36.13-87.23 36.22-104.91 0-18.936-6.91-32.313-33.06-32.313-22.7 0-40.43 25.123-53.16 25.123-8.06 0-15.72-4.01-15.72-15.717 0-18.766 22.15-36.375 71-36.375v-0.002zm-98.18 160.33c22.02 0 49.11 5.37 78.09 11.63-35.11 59.66-86.08 116.5-128.47 116.5-38.01 0-64.028-12.63-64.028-46-0.0008-49.57 55.512-82.12 114.41-82.13z"/>
  <path d="m893.15 404.03c55.44 0 98.09-31.923 98.09-61.561 0-10.996-12.21-21.786-26.65-21.786-17.57-0.19999-35.86 28.13-53.75 28.13-20.9 0-27.38-11.05-27.38-26.31 0-23.98 17.58-63.54 39.66-103.09 27.24 4.63 55.73 8.44 83.75 8.44 61.616 0 122.3-36.47 122.3-88.31 0-39.37-31.331-63.16-71.555-63.16-57.673 0.99-107.21 66.89-139.11 131.44-17.3-2.55-42.26-8.08-60.88-12.81v-19.56c0-62.41-27.88-91.73-59.44-101.06-16.85 12.83-32.65 23.73-49.93 34.49l19.37-1c14.35 3.66 40 19.22 40 69.65v7.91c-9.91-1.06-22.36-1.72-30.91-1.69-13.61 0.05-25.37 13.81-25.37 24.31 10.76-6.85 33.52-7.39 56.28-5.28v122.06c0.15 16.671 0.95 79.187 85.53 79.187zm15.28-22.063c-24.55 0-50.66-13.6-50.66-50.684-0.05-40.13-0.1-80.25-0.15-120.38 15.44 2.42 40.81 5.31 56.09 6.87-20.95 44.78-36.13 87.23-36.22 104.91 0 18.936 6.91 32.313 33.06 32.313 22.7 0 40.43-25.123 53.16-25.123 8.06 0 15.72 4.01 15.72 15.717 0 18.766-22.15 36.375-71 36.375v0.002zm98.18-160.33c-22.02 0-49.11-5.37-78.09-11.63 35.11-59.66 86.08-116.5 128.47-116.5 38.01 0 64.028 12.63 64.028 46 0.0008 49.57-55.512 82.12-114.41 82.13z"/>
  <path d="m412.08 61.947c6.375-2.36 30.275-17.36 37.185-25.82 1.1-1.24 0.29-1.54-0.65-1.15-11.96 5.01-26.76-17.79-33.13-24.85-10.43 8.66-21.83 18.86-33.94 29 8.31 10.16 19.01 17.06 30.535 22.82z"/>
  <path d="m726.49 388.23c-6.375 2.36-30.275 17.36-37.185 25.82-1.1 1.24-0.29 1.54 0.65 1.15 11.96-5.01 26.76 17.79 33.13 24.85 10.43-8.66 21.83-18.86 33.94-29-8.31-10.16-19.01-17.06-30.535-22.82z"/>
  <path d="m390.93 341.94c-0.281 29.16-16.181 57.96-44.971 72.09 73.49-0.73 94.89-54.73 95.19-101.13l-0.1877-172.83c0-24.68-2.9-52.08-27.72-65.06-10.18 18.78-26.48 36.48-45.12 48.97 17.14-1.89 22.85 12.01 22.84 25.06 0.01 4.65-0.01 26.75 0 46.22 0.0571 45.206 0.2407 90.012 0.2503 135.36"/>
  <path d="m748.23 108.86c0.281-29.16 16.181-57.96 44.971-72.09-73.49 0.73-94.89 54.73-95.19 101.13l0.18771 172.83c0 24.68 2.9 52.08 27.72 65.06 10.18-18.78 26.48-36.48 45.12-48.97-17.14 1.89-22.85-12.01-22.84-25.06-0.01-4.65 0.01-26.75 0-46.22-0.0571-45.206-0.2407-90.012-0.2503-135.36"/>
  <path d="m520.1 10c-10.23 8.77-21.83 18.97-33.94 29 8.41 10.57 18.91 17.3 30.54 22.81 7.07-2.74 34.87-20.04 38.683-27.995 0.09-0.245-0.01-0.245-0.15-0.145-12.36 8.9-28.36-16.2-35.13-23.67z"/>
  <path d="m618.48 440.17c10.23-8.77 21.83-18.97 33.94-29-8.41-10.57-18.91-17.3-30.54-22.81-7.07 2.74-34.87 20.04-38.683 27.995-0.087 0.245 0.013 0.245 0.153 0.145 12.36-8.9 28.36 16.2 35.13 23.67z"/>
  <path d="m642.92 138.46c0-15.255-2.8897-29.4-9.9619-41.026 1.4381-1.1196 2.8037-2.2028 4.0657-3.2287 31.59 26.38 60.49 2.18 64.19-33.22-17.8 13.4-28.6 10.5-42.9-2.3-7.1904 11.479-17.882 22.641-29.368 32.999-4.6593-5.8472-10.629-10.873-18.119-14.849-10.562 17.014-22.795 31.858-39.031 45.531 17.241-1.7725 21.185 11.559 21.188 25.062l0.0318 162.8c0 25.77 4.3 51.77 27.12 65.06 12.78-18.49 28.58-34.99 45.72-48.97-17.14 1.98-22.84-11.72-22.84-25.06z"/>
  <path d="m495.66 311.71c0 15.255 2.8897 29.4 9.9619 41.026-1.4381 1.1196-2.8037 2.2028-4.0657 3.2287-31.59-26.38-60.49-2.18-64.19 33.22 17.8-13.4 28.6-10.5 42.9 2.3 7.1904-11.479 17.882-22.641 29.368-32.999 4.6593 5.8472 10.629 10.873 18.119 14.849 10.562-17.014 22.795-31.858 39.031-45.531-17.241 1.7725-21.185-11.559-21.188-25.062l-0.0317-162.8c0-25.77-4.3-51.77-27.12-65.06-12.78 18.49-28.58 34.99-45.72 48.97 17.14-1.98 22.84 11.72 22.84 25.06z"/>
 </g>
</svg>
