<svg xmlns:rdf="http://www.w3.org/1999/02/22-rdf-syntax-ns#" xmlns="http://www.w3.org/2000/svg" height="340.03" width="373.79" version="1.1" xmlns:cc="http://creativecommons.org/ns#" xmlns:dc="http://purl.org/dc/elements/1.1/" viewBox="0 0 373.79562 340.03019">
 <g stroke-width="3" fill="#fff" transform="translate(-31.565 10.002)">
  <path d="m201.45 181.73s-23.132-22.109-40.534-22.109c-10.675 0-23.339 8.4253-23.339 8.4253s-4.5024-3.8298-9.4158-3.8298h-1.5575-0.0798-1.5605c-4.9132 0-9.4174 3.8298-9.4174 3.8298s-12.66-8.4253-23.336-8.4253c-17.402 0-40.534 22.109-40.534 22.109s-2.0225 23.935 11.055 38.077c7.5738 8.1849 20.881 11.874 20.881 11.874l6.9884-7.9892-0.02558 78.56h27.022v-38.549l4.6078 38.496h8.7502l4.5761-38.501v38.554h26.896l0.10233-78.56 6.9853 7.9892s13.306-3.6898 20.879-11.874c13.077-14.141 11.056-38.077 11.056-38.077zm-93.68 7.1328c2.051 0 3.7124 1.6643 3.7124 3.7154 0 2.0496-1.6613 3.7154-3.7124 3.7154-2.0541 0-3.7169-1.6658-3.7169-3.7154 0-2.051 1.6628-3.7154 3.7169-3.7154zm7.5752 75.673c-1.094 0.86226-3.0713-0.4078-3.0713-0.4078s-6.5806-4.0886-8.8051-12.286c-1.9412-7.1629-1.431-25.794-1.431-25.794h9.4142s-0.34009 23.341 0.40931 27.843c0.71929 4.2947 3.6823 7.6761 3.6823 7.6761s1.2309 1.8419-0.19863 2.9675zm30.012-75.673c2.0541 0 3.7139 1.6643 3.7139 3.7154 0 2.0496-1.6598 3.7154-3.7139 3.7154-2.0466 0-3.7139-1.6658-3.7139-3.7154 0-2.051 1.6674-3.7154 3.7139-3.7154zm4.2992 62.98c-2.2257 8.1966-8.8019 12.286-8.8019 12.286s-1.9758 1.2701-3.0683 0.40781c-1.4356-1.1256-0.21068-2.9675-0.21068-2.9675s2.9735-3.3798 3.6868-7.6761c0.7494-4.5024 0.40781-27.843 0.40781-27.843h9.4205s0.51314 18.631-1.4341 25.794z"/>
  <path d="m296.71 69.631c48.875 0 88.645-13.38 88.645-29.806 0-16.475-39.751-29.831-88.645-29.831-49.07 0-88.645 13.355-88.645 29.831 0 16.425 39.577 29.806 88.645 29.806zm0-51.323c18.876 0 34.233 5.1673 34.233 11.533 0 6.3406-15.357 11.483-34.233 11.483-18.941 0-34.233-5.1424-34.233-11.483 0-6.3655 15.292-11.533 34.233-11.533z"/>
  <path d="m208.04 52.53v66.998c0 38.168 177.32 39.641 177.32 0v-66.998c0 39.666-177.32 38.218-177.32 0z"/>
  <path d="m208.04 133.33v66.972c0 38.218 177.32 39.666 177.32 0v-66.972c0 39.666-177.32 38.193-177.32 0z"/>
  <path d="m208.04 213.86v66.972c0 38.193 177.32 39.666 177.32 0v-66.972c0 39.641-177.32 38.193-177.32 0z"/>
 </g>
</svg>
