<svg xmlns:rdf="http://www.w3.org/1999/02/22-rdf-syntax-ns#" xmlns="http://www.w3.org/2000/svg" height="320.65" width="313.36" version="1.1" xmlns:cc="http://creativecommons.org/ns#" xmlns:dc="http://purl.org/dc/elements/1.1/" viewBox="0 0 313.36353 320.65414">
 <g transform="translate(-209.24 -660.7)" fill="#fff" stroke-width="3">
  <path d="m295.43 971.35v-40.481l-40.593 11.297c-2.9802 1.1844-6.2166 1.847-9.6002 1.847-14.354 0.003-25.993-11.671-25.993-26.006 0-5.4035 1.639-10.4 4.44-14.546l65.117-89.289c7.0713-9.6866 16.944-20.474 37.764-20.474h78.728c20.81 0 30.689 10.791 37.751 20.474l65.114 89.289c2.801 4.1454 4.4496 9.1424 4.4496 14.546 0 14.338-11.652 26.009-25.993 26.009-3.3804 0-6.6295-0.66263-9.6002-1.847l-40.609-11.297v40.478h-140.97zm70.495-28.282 52.604-17.404-1.1844-0.33291c-36.298-10.679-22.165-58.632 14.123-47.927l4.9617 1.6678v-54.147l-70.505 23.032-70.501-23.032v54.15l4.9361-1.6678c36.317-10.708 50.443 37.248 14.13 47.934l-1.162 0.32651 52.598 17.401z"/>
  <path style="" d="m360.12 725.98a9.6865 9.5546 0 0 1 -9.6865 9.5546 9.6865 9.5546 0 0 1 -9.6865 -9.5546 9.6865 9.5546 0 0 1 9.6865 -9.5546 9.6865 9.5546 0 0 1 9.6865 9.5546z"/>
  <path style="" d="m393.19 726.47a9.6839 9.5521 0 0 1 -9.684 9.5521 9.6839 9.5521 0 0 1 -9.684 -9.5521 9.6839 9.5521 0 0 1 9.684 -9.5521 9.6839 9.5521 0 0 1 9.684 9.5521z"/>
  <path d="m344.81 747.59c1.3639-1.4227 3.2086-2.3337 5.2911-2.3337v15.974c-4.1651-0.0374-7.4951-3.5593-7.4951-7.9896 0-2.2114 0.84263-4.2282 2.204-5.6509z"/>
  <path style="" d="m354.12 745.26h3.6843v15.974h-3.6843z"/>
  <path style="" d="m361.81 745.26h3.6489v15.974h-3.6489z"/>
  <path style="" d="m369.46 745.26h3.6894v15.974h-3.6894z"/>
  <path style="" d="m377.16 745.26h3.6868v15.974h-3.6868z"/>
  <path d="m392.35 753.24c0 4.4304-3.3275 7.9522-7.4951 7.9896v-15.974c4.1676 0.0399 7.4951 3.5543 7.4951 7.9846z"/>
  <path d="m417.63 735.54v-24.71c0-9.5596-7.8949-17.372-17.612-17.372h-27.961v-8.037c2.9859-1.0234 5.1115-3.8438 5.1115-7.1385 0-4.1932-3.4414-7.5878-7.6925-7.5878s-7.7178 3.3945-7.7178 7.5878c0 3.2947 2.1256 6.0902 5.1115 7.1135v8.062h-30.972c-9.7168 0-17.612 7.8124-17.612 17.372v24.71h-5.1621v13.678h5.1621v36.591h99.345v-36.591h5.5922v-13.678h-5.5922zm-15.157 35.343h-69.03v-60.053c0-1.3478 1.1134-2.3961 2.4545-2.3961h64.121c1.3411 0 2.457 1.0483 2.457 2.3961v60.053z"/>
 </g>
</svg>
