<svg xmlns:rdf="http://www.w3.org/1999/02/22-rdf-syntax-ns#" xmlns="http://www.w3.org/2000/svg" height="324.66" width="417.63" version="1.1" xmlns:cc="http://creativecommons.org/ns#" xmlns:dc="http://purl.org/dc/elements/1.1/" viewBox="0 0 417.63087 324.66333">
 <g stroke-width="3" fill="#fff">
  <path d="m304.26 197.54 50.176-28.969c34.76-20.07 68.77-83.669 45.59-123.81-23.17-40.14-95.25-42.488-130.02-22.417l-50.17 28.969-90.46-24.237c-1.1307-0.30295-2.4128-0.0406-3.1296 0.37326l-35.84 20.692c-3.9424 2.2762-5.3058 7.3641-3.0296 11.307l143.39 248.38c2.2762 3.9424 7.3641 5.3058 11.307 3.0296l35.84-20.692c1.0752-0.62077 1.5851-1.393 1.888-2.5237l24.444-90.094zm-165.42-99.464-21.11-36.557l13.619-7.8631 57.663 15.451-50.176 28.969zm71.8 124.36-59.18-102.5 131.17-75.74c12.186-7.0354 32.755-10.31 51.962-8.4958 20.902 2.2682 36.746 9.8461 43.575 21.673 6.8285 11.827 5.4692 29.338-3.0176 48.574-7.674 17.333-21.153 33.717-33.338 40.752l-131.17 75.74zm33.729 58.42-21.106-36.557 50.176-28.969-15.451 57.663-13.619 7.8631zm73.45-159.96a24.831 24.831 0 0 1 -33.92 -9.0894 24.831 24.831 0 0 1 9.0894 -33.92 24.831 24.831 0 0 1 33.92 9.0894 24.831 24.831 0 0 1 -9.0894 33.92z"/>
  <path d="m73.689 124.83c-0.18536-1.5633-0.69268-3.1766-1.4789-4.5384-0.78414-1.3582-1.8506-2.5533-3.0947-3.5483-3.9216-3.078-8.4548-3.0842-12.715-0.62448l-7.3645 4.2519c-4.2175 2.435-6.4224 6.379-5.8009 11.265 0.21136 1.596 0.71136 3.1182 1.5151 4.5103 0.86875 1.5047 2.0553 2.8212 3.4818 3.8061 3.8655 2.7292 8.229 2.4497 12.2 0.1571l7.3645-4.2519c4.1542-2.396 6.4398-6.1961 5.8928-11.027zm-17.336 8.6224c-2.0766 1.1989-4.3254 1.5918-5.7297-0.84037-1.3413-2.3232 0.1026-4.2052 2.1381-5.3804l7.7255-4.4603c1.9997-1.1546 4.382-1.4815 5.7233 0.84169 1.4042 2.4322-0.06046 4.1833-2.1317 5.3791l-7.7255 4.4603zm62.647-2.93c-0.18714-1.5623-0.68985-3.1759-1.4761-4.5376-0.78414-1.3582-1.856-2.5502-3.1021-3.5488-3.9188-3.0773-8.4502-3.0845-12.709-0.62579l-7.3645 4.2519c-4.2229 2.4381-6.4277 6.3821-5.8009 11.265 0.20318 1.5983 0.70496 3.1195 1.5108 4.5152 0.86772 1.5029 2.0596 2.8163 3.4818 3.8061 3.8637 2.7302 8.2344 2.4466 12.205 0.154l7.3645-4.2519c4.1478-2.3947 6.4362-6.194 5.89-11.028zm-17.341 8.6273c-2.0712 1.1958-4.3201 1.5887-5.7243-0.84347-1.3423-2.325 0.09799-4.205 2.1317-5.3791l7.7255-4.4603c2.0051-1.1576 4.3891-1.4856 5.7314 0.83934 1.4042 2.4322-0.0623 4.1843-2.1388 5.3832l-7.7255 4.4603zm-22.607 7.2927-20.777 11.996 3.9023 6.7588 26.467-15.281-6.4003-11.085-5.6901 3.2852zm43.418 2.42-20.78 11.998 3.9023 6.7588 26.465-15.28-6.4003-11.085-5.6848 3.2822zm-16.11-41.03-6.4003-11.085-5.6848 3.2822 2.499 4.3284-20.78 11.998 3.9012 6.757z"/>
  <path d="m40.364 207.83-6.4003-11.085-5.6848 3.2822 2.499 4.3284-20.78 11.998 3.9012 6.757zm71.926-16.14c-0.18639-1.5651-0.69267-3.1766-1.4789-4.5384-0.78414-1.3582-1.8506-2.5533-3.0957-3.5501-3.9216-3.078-8.4538-3.0824-12.714-0.62268l-7.3645 4.2519c-4.2175 2.435-6.4224 6.379-5.8009 11.265 0.21136 1.596 0.71136 3.1182 1.5151 4.5103 0.86875 1.5047 2.0553 2.8212 3.4818 3.8061 3.8655 2.7292 8.229 2.4497 12.2 0.15709l7.3645-4.2519c4.1542-2.396 6.4398-6.1961 5.8928-11.027zm-17.335 8.6242c-2.0766 1.1989-4.3254 1.5918-5.7297-0.84037-1.3413-2.3232 0.1026-4.2052 2.1381-5.3804l7.7255-4.4603c1.9997-1.1546 4.382-1.4815 5.7233 0.84168 1.4042 2.4322-0.0605 4.1833-2.1317 5.3791l-7.7255 4.4603zm50.005-25.624-6.4002-11.085-5.6848 3.2822 2.499 4.3284-20.78 11.998 3.9012 6.757zm-54.005-7.64-20.777 11.996 3.9023 6.7588 26.467-15.281-6.4003-11.085-5.6901 3.2852zm-42.725-2.82-20.777 11.996 3.9023 6.7588 26.467-15.281-6.4003-11.085-5.6901 3.2852z"/>
  <path d="m52.996 230.53c-0.18714-1.5623-0.68985-3.1759-1.4761-4.5376-0.78414-1.3582-1.856-2.5502-3.1021-3.5488-3.9188-3.0773-8.4502-3.0845-12.709-0.62579l-7.3645 4.2519c-4.2228 2.4381-6.4277 6.3821-5.8009 11.265 0.20318 1.5983 0.70497 3.1195 1.5108 4.5152 0.8677 1.5029 2.0596 2.8163 3.4818 3.8061 3.8637 2.7302 8.2344 2.4466 12.205 0.154l7.3645-4.2519c4.1478-2.3947 6.4362-6.194 5.89-11.028zm-17.341 8.6273c-2.0712 1.1958-4.3201 1.5887-5.7243-0.84347-1.3423-2.325 0.098-4.205 2.1317-5.3791l7.7255-4.4603c2.0051-1.1576 4.3891-1.4856 5.7314 0.83934 1.4042 2.4322-0.0623 4.1843-2.1388 5.3832l-7.7255 4.4603zm20.817 9.6927-20.78 11.998 3.9023 6.7588 26.465-15.28-6.4003-11.085-5.6848 3.2822zm30.359-17.76-20.777 11.996 3.9012 6.757 26.467-15.281-6.4003-11.085-5.6901 3.2852zm30.819-17.79-20.777 11.996 3.9012 6.757 26.467-15.281-6.4003-11.085-5.6901 3.2852zm-8.49 44.16c-0.19073-1.5602-0.69165-3.1748-1.4768-4.5348-0.78621-1.3618-1.8545-2.5559-3.0985-3.5509-3.9206-3.0762-8.4558-3.086-12.709-0.63038l-7.3699 4.255c-4.2175 2.435-6.4267 6.3839-5.7999 11.266 0.2075 1.5934 0.70496 3.1195 1.5118 4.517 0.86772 1.5029 2.0586 2.8145 3.4851 3.7994 3.8637 2.7302 8.229 2.4497 12.2 0.15709l7.3699-4.255c4.1481-2.3901 6.4312-6.1863 5.8875-11.024zm-17.337 8.6252c-2.0766 1.1989-4.3244 1.5936-5.7297-0.84038-1.3413-2.3232 0.10006-4.2014 2.1391-5.3786l7.7202-4.4572c2.0051-1.1576 4.3917-1.4895 5.733 0.8337 1.4053 2.434-0.0676 4.1874-2.1424 5.3853l-7.7202 4.4572zm49.327-25.235-6.3992-11.084-5.6901 3.2852 2.497 4.3248-20.777 11.996 3.9023 6.7588z"/>
  <path d="m78.965 274.68-6.4003-11.085-5.6848 3.2822 2.499 4.3284-20.78 11.998 3.9012 6.757zm12.055 21.52c-0.18612-1.5605-0.69089-3.1776-1.475-4.5358-0.78414-1.3582-1.857-2.552-3.1031-3.5506-3.9188-3.0773-8.4492-3.0827-12.708-0.62399l-7.3645 4.2519c-4.2229 2.4381-6.4277 6.3821-5.8009 11.265 0.20318 1.5983 0.70393 3.1177 1.5108 4.5152 0.86668 1.5011 2.0586 2.8145 3.4818 3.8061 3.8637 2.7302 8.2334 2.4448 12.204 0.15221l7.3645-4.2519c4.1478-2.3947 6.4352-6.1958 5.89-11.028zm-17.341 8.6273c-2.0712 1.1958-4.3201 1.5887-5.7243-0.84347-1.3423-2.325 0.10006-4.2014 2.1337-5.3755l7.7255-4.4603c2.0051-1.1576 4.387-1.4892 5.7294 0.83577 1.4042 2.4322-0.06225 4.1843-2.1388 5.3832l-7.7255 4.4603zm69.781-46.837-20.777 11.996 3.9033 6.7606 26.467-15.281-6.4013-11.087-5.6901 3.2852zm51.56 4.21c-0.18611-1.5605-0.69088-3.1776-1.475-4.5358-0.78414-1.3582-1.857-2.552-3.1031-3.5506-3.9188-3.0773-8.4492-3.0827-12.708-0.62399l-7.3645 4.2519c-4.2228 2.4381-6.4277 6.3821-5.8009 11.265 0.20317 1.5983 0.70393 3.1177 1.5108 4.5152 0.86668 1.5011 2.0586 2.8145 3.4818 3.8061 3.8637 2.7302 8.2334 2.4448 12.204 0.15221l7.3645-4.2519c4.1478-2.3947 6.4352-6.1958 5.89-11.028zm-17.341 8.6273c-2.0712 1.1958-4.3201 1.5887-5.7243-0.84347-1.3423-2.325 0.10006-4.2014 2.1338-5.3755l7.7255-4.4603c2.0051-1.1576 4.387-1.4892 5.7294 0.83577 1.4042 2.4322-0.0622 4.1843-2.1388 5.3832l-7.7255 4.4603zm-53.419 25.083-20.777 11.996 3.9023 6.7588 26.467-15.281-6.4023-11.089-5.6901 3.2852zm30.82-17.79-20.777 11.996 3.9023 6.7588 26.467-15.281-6.4023-11.089-5.6901 3.2853z"/>
 </g>
</svg>
